<?xml version="1.0" encoding="UTF-8"?>
<svg width="24" height="24" viewBox="0 0 24 24" fill="none" xmlns="http://www.w3.org/2000/svg">
  <path d="M12 22C17.5228 22 22 17.5228 22 12C22 6.47715 17.5228 2 12 2C6.47715 2 2 6.47715 2 12C2 13.5997 2.37562 15.1116 3.04346 16.4525C3.22094 16.8088 3.28001 17.2161 3.17712 17.6006L2.5 21L5.89944 20.3229C6.28389 20.22 6.69119 20.2791 7.04753 20.4565C8.38843 21.1244 9.90034 21.5 11.5 21.5C11.6681 21.5 11.8349 21.4959 12 21.4877C12 21.4959 11.8349 21.5 11.6668 21.5" stroke="#4A5568" stroke-width="2" stroke-linecap="round" stroke-linejoin="round"/>
  <path d="M8 12H8.01M12 12H12.01M16 12H16.01" stroke="#4A5568" stroke-width="2" stroke-linecap="round" stroke-linejoin="round"/>
</svg>
